<svg width="48" height="48" viewBox="0 0 48 48" fill="none" xmlns="http://www.w3.org/2000/svg">
<path d="M16.5 43.5H31.5" stroke="black" stroke-width="2" stroke-linecap="round" stroke-linejoin="round"/>
<path d="M14.7569 31.3146C12.9733 29.9216 11.5287 28.1424 10.5316 26.1107C9.53455 24.079 9.01096 21.8478 9.00023 19.5846C8.9553 11.4542 15.51 4.69557 23.6383 4.50426C26.7881 4.42842 29.8817 5.34626 32.4805 7.12759C35.0792 8.90892 37.0511 11.4633 38.1165 14.4284C39.1818 17.3935 39.2865 20.6187 38.4156 23.6467C37.5448 26.6746 35.7427 29.3514 33.2649 31.2975C32.7191 31.7203 32.2766 32.2617 31.9709 32.8807C31.6651 33.4997 31.5041 34.1801 31.5 34.8705L31.5 36C31.5 36.3978 31.342 36.7794 31.0607 37.0607C30.7794 37.342 30.3978 37.5 30 37.5H18C17.6022 37.5 17.2206 37.342 16.9393 37.0607C16.658 36.7794 16.5 36.3978 16.5 36L16.5 34.8692C16.4982 34.1833 16.3404 33.5067 16.0384 32.8909C15.7364 32.275 15.2982 31.736 14.7569 31.3146V31.3146Z" stroke="black" stroke-width="2" stroke-linecap="round" stroke-linejoin="round"/>
<path d="M25.5229 10.647C27.3577 10.9589 29.0503 11.8327 30.367 13.1478C31.6838 14.463 32.5597 16.1545 32.8738 17.9888" stroke="black" stroke-width="2" stroke-linecap="round" stroke-linejoin="round"/>
</svg>
