<svg width="98" height="18" viewBox="0 0 98 18" fill="none" xmlns="http://www.w3.org/2000/svg">
<path d="M0.208 17V0.535999H2.488V17H0.208ZM6.28769 17V4.376H7.89569L8.13569 6.08H8.30369C8.79969 5.376 9.41569 4.872 10.1517 4.568C10.8877 4.248 11.6877 4.088 12.5517 4.088C13.3517 4.088 14.0477 4.232 14.6397 4.52C15.2317 4.792 15.6877 5.248 16.0077 5.888C16.3277 6.512 16.4877 7.344 16.4877 8.384V17H14.3757V8.528C14.3757 7.456 14.1357 6.744 13.6557 6.392C13.1757 6.024 12.5437 5.84 11.7597 5.84C11.1677 5.84 10.6157 5.992 10.1037 6.296C9.59169 6.584 9.17569 7 8.85569 7.544C8.55169 8.088 8.39969 8.752 8.39969 9.536V17H6.28769ZM19.6236 17V4.376H21.2316L21.4716 6.08H21.6396C22.1356 5.376 22.7516 4.872 23.4876 4.568C24.2236 4.248 25.0236 4.088 25.8876 4.088C26.6876 4.088 27.3836 4.232 27.9756 4.52C28.5676 4.792 29.0236 5.248 29.3436 5.888C29.6636 6.512 29.8236 7.344 29.8236 8.384V17H27.7116V8.528C27.7116 7.456 27.4716 6.744 26.9916 6.392C26.5116 6.024 25.8796 5.84 25.0956 5.84C24.5036 5.84 23.9516 5.992 23.4396 6.296C22.9276 6.584 22.5116 7 22.1916 7.544C21.8876 8.088 21.7356 8.752 21.7356 9.536V17H19.6236ZM38.0236 17.288C36.1196 17.288 34.6716 16.76 33.6796 15.704C32.6876 14.632 32.1916 12.96 32.1916 10.688C32.1916 8.416 32.6876 6.752 33.6796 5.696C34.6716 4.624 36.1196 4.088 38.0236 4.088C39.9276 4.088 41.3756 4.624 42.3676 5.696C43.3596 6.752 43.8556 8.416 43.8556 10.688C43.8556 12.96 43.3596 14.632 42.3676 15.704C41.3756 16.76 39.9276 17.288 38.0236 17.288ZM38.0236 15.536C39.3036 15.536 40.2316 15.168 40.8076 14.432C41.3836 13.68 41.6716 12.464 41.6716 10.784V10.592C41.6716 8.912 41.3836 7.704 40.8076 6.968C40.2316 6.216 39.3036 5.84 38.0236 5.84C36.7436 5.84 35.8156 6.216 35.2396 6.968C34.6636 7.704 34.3756 8.912 34.3756 10.592V10.784C34.3756 12.464 34.6636 13.68 35.2396 14.432C35.8156 15.168 36.7436 15.536 38.0236 15.536ZM49.6315 17L44.9995 4.376H47.2315L49.4635 10.688C49.5915 11.04 49.7275 11.44 49.8715 11.888C50.0155 12.336 50.1515 12.776 50.2795 13.208C50.4075 13.624 50.5115 13.968 50.5915 14.24C50.6715 14.512 50.7115 14.648 50.7115 14.648H50.8315C50.8315 14.648 50.8635 14.52 50.9275 14.264C51.0075 13.992 51.1035 13.656 51.2155 13.256C51.3435 12.84 51.4795 12.408 51.6235 11.96C51.7675 11.496 51.9115 11.072 52.0555 10.688L54.2635 4.376H56.3755L51.7435 17H49.6315ZM61.7275 17.288C61.3275 17.288 60.8875 17.24 60.4075 17.144C59.9275 17.064 59.4715 16.904 59.0395 16.664C58.6075 16.408 58.2475 16.048 57.9595 15.584C57.6875 15.12 57.5515 14.504 57.5515 13.736C57.5515 12.584 57.9115 11.704 58.6315 11.096C59.3675 10.488 60.3675 10.072 61.6315 9.848C62.8955 9.624 64.3355 9.512 65.9515 9.512V8.12C65.9515 7.672 65.8715 7.28 65.7115 6.944C65.5515 6.592 65.2635 6.32 64.8475 6.128C64.4315 5.936 63.8395 5.84 63.0715 5.84C62.3195 5.84 61.7355 5.944 61.3195 6.152C60.9035 6.344 60.6155 6.592 60.4555 6.896C60.2955 7.2 60.2155 7.512 60.2155 7.832V8.12H58.1755C58.1595 8.056 58.1515 7.984 58.1515 7.904C58.1515 7.808 58.1515 7.704 58.1515 7.592C58.1515 6.44 58.6235 5.568 59.5675 4.976C60.5275 4.384 61.7595 4.088 63.2635 4.088C64.8635 4.088 66.0635 4.424 66.8635 5.096C67.6635 5.752 68.0635 6.672 68.0635 7.856V14.696C68.0635 15 68.1515 15.216 68.3275 15.344C68.5035 15.472 68.6955 15.536 68.9035 15.536H69.8635V16.904C69.7355 16.968 69.5275 17.032 69.2395 17.096C68.9675 17.16 68.6315 17.192 68.2315 17.192C67.6715 17.192 67.2075 17.032 66.8395 16.712C66.4715 16.376 66.2315 15.936 66.1195 15.392H65.9515C65.5195 15.984 64.9275 16.448 64.1755 16.784C63.4395 17.12 62.6235 17.288 61.7275 17.288ZM62.2795 15.536C62.8715 15.536 63.4475 15.416 64.0075 15.176C64.5675 14.92 65.0315 14.544 65.3995 14.048C65.7675 13.552 65.9515 12.928 65.9515 12.176V11.264C64.7195 11.264 63.6395 11.328 62.7115 11.456C61.7835 11.568 61.0555 11.792 60.5275 12.128C60.0155 12.464 59.7595 12.96 59.7595 13.616C59.7595 14.336 59.9835 14.84 60.4315 15.128C60.8795 15.4 61.4955 15.536 62.2795 15.536ZM74.4874 17.264C73.8634 17.264 73.3674 17.136 72.9994 16.88C72.6474 16.608 72.3914 16.272 72.2314 15.872C72.0714 15.472 71.9914 15.048 71.9914 14.6V6.128H70.4554V4.376H72.0154L72.4714 0.871999H74.1034V4.376H76.2394V6.128H74.1034V14.408C74.1034 15.16 74.4554 15.536 75.1594 15.536H76.2394V16.928C76.0314 17.024 75.7594 17.104 75.4234 17.168C75.0874 17.232 74.7754 17.264 74.4874 17.264ZM83.3751 17.288C81.4711 17.288 80.0231 16.76 79.0311 15.704C78.0391 14.632 77.5431 12.96 77.5431 10.688C77.5431 8.416 78.0391 6.752 79.0311 5.696C80.0231 4.624 81.4711 4.088 83.3751 4.088C85.2791 4.088 86.7271 4.624 87.7191 5.696C88.7111 6.752 89.2071 8.416 89.2071 10.688C89.2071 12.96 88.7111 14.632 87.7191 15.704C86.7271 16.76 85.2791 17.288 83.3751 17.288ZM83.3751 15.536C84.6551 15.536 85.5831 15.168 86.1591 14.432C86.7351 13.68 87.0231 12.464 87.0231 10.784V10.592C87.0231 8.912 86.7351 7.704 86.1591 6.968C85.5831 6.216 84.6551 5.84 83.3751 5.84C82.0951 5.84 81.1671 6.216 80.5911 6.968C80.0151 7.704 79.7271 8.912 79.7271 10.592V10.784C79.7271 12.464 80.0151 13.68 80.5911 14.432C81.1671 15.168 82.0951 15.536 83.3751 15.536ZM91.6471 17V4.376H93.2551L93.4951 6.272H93.6391C93.8471 5.744 94.1751 5.248 94.6231 4.784C95.0871 4.32 95.7511 4.088 96.6151 4.088C96.9511 4.088 97.2231 4.12 97.4311 4.184C97.6391 4.248 97.7431 4.28 97.7431 4.28V6.32H96.8551C96.3271 6.32 95.8231 6.424 95.3431 6.632C94.8791 6.84 94.4951 7.184 94.1911 7.664C93.9031 8.128 93.7591 8.752 93.7591 9.536V17H91.6471Z" fill="black"/>
</svg>
